<?xml version="1.0" standalone="no"?>
<!DOCTYPE svg PUBLIC "-//W3C//DTD SVG 20010904//EN"
 "http://www.w3.org/TR/2001/REC-SVG-20010904/DTD/svg10.dtd">
<svg version="1.0" xmlns="http://www.w3.org/2000/svg"
 width="180.000000pt" height="240.000000pt" viewBox="0 0 180.000000 240.000000"
 preserveAspectRatio="xMidYMid meet">

<g transform="translate(0.000000,240.000000) scale(0.100000,-0.100000)"
fill="#000000" stroke="none">
<path d="M863 2303 c20 -2 54 -2 75 0 20 2 3 4 -38 4 -41 0 -58 -2 -37 -4z"/>
<path d="M763 2293 c9 -2 23 -2 30 0 6 3 -1 5 -18 5 -16 0 -22 -2 -12 -5z"/>
<path d="M1003 2293 c9 -2 25 -2 35 0 9 3 1 5 -18 5 -19 0 -27 -2 -17 -5z"/>
<path d="M718 2283 c7 -3 16 -2 19 1 4 3 -2 6 -13 5 -11 0 -14 -3 -6 -6z"/>
<path d="M1068 2283 c6 -2 18 -2 25 0 6 3 1 5 -13 5 -14 0 -19 -2 -12 -5z"/>
<path d="M655 2270 c-13 -5 -14 -9 -5 -9 8 0 24 4 35 9 13 5 14 9 5 9 -8 0
-24 -4 -35 -9z"/>
<path d="M1159 2259 c30 -10 56 -17 58 -15 5 5 -86 36 -101 35 -6 0 13 -9 43
-20z"/>
<path d="M518 2215 c-36 -19 -69 -38 -72 -43 -4 -7 139 63 153 74 15 13 -24
-2 -81 -31z"/>
<path d="M1230 2236 c0 -2 7 -7 16 -10 8 -3 12 -2 9 4 -6 10 -25 14 -25 6z"/>
<path d="M1343 2174 c43 -27 112 -83 154 -124 44 -43 63 -58 45 -35 -53 67
-200 181 -260 202 -9 3 18 -17 61 -43z"/>
<path d="M351 2099 c-39 -33 -71 -64 -71 -69 0 -4 15 6 33 24 17 17 52 48 77
69 25 20 42 37 38 37 -4 0 -39 -27 -77 -61z"/>
<path d="M870 2001 c-42 -43 -46 -59 -4 -19 21 21 36 39 34 41 -3 2 -16 -8
-30 -22z"/>
<path d="M948 1998 c48 -57 502 -514 502 -506 0 4 -120 128 -267 275 -147 148
-253 251 -235 231z"/>
<path d="M232 1974 c-36 -49 -112 -183 -112 -199 0 -5 21 28 45 74 25 46 59
101 76 123 17 21 30 40 28 42 -2 2 -19 -16 -37 -40z"/>
<path d="M1595 1933 c15 -24 30 -43 32 -43 7 0 -31 61 -46 73 -8 7 -2 -7 14
-30z"/>
<path d="M791 1920 c-13 -11 -19 -20 -14 -20 6 0 18 9 28 20 23 25 17 25 -14
0z"/>
<path d="M682 1814 c-40 -41 -69 -74 -65 -74 5 0 42 34 83 75 41 41 70 74 65
74 -6 -1 -43 -35 -83 -75z"/>
<path d="M1641 1860 c14 -31 19 -36 19 -24 0 6 -7 19 -16 30 -14 18 -14 18 -3
-6z"/>
<path d="M1660 1819 c0 -4 9 -26 20 -50 11 -24 19 -37 19 -29 0 15 -38 91 -39
79z"/>
<path d="M106 1745 c-9 -26 -7 -32 5 -12 6 10 9 21 6 23 -2 3 -7 -2 -11 -11z"/>
<path d="M492 1619 c-62 -62 -111 -113 -109 -115 1 -2 54 48 117 111 63 63
112 115 110 115 -3 0 -56 -50 -118 -111z"/>
<path d="M91 1684 c0 -11 3 -14 6 -6 3 7 2 16 -1 19 -3 4 -6 -2 -5 -13z"/>
<path d="M1712 1675 c0 -11 4 -31 8 -45 6 -20 8 -21 8 -5 0 11 -4 31 -8 45 -6
20 -8 21 -8 5z"/>
<path d="M76 1629 c-3 -17 -5 -43 -5 -58 1 -14 5 -2 10 28 10 58 6 83 -5 30z"/>
<path d="M1733 1560 c0 -25 2 -35 4 -22 2 12 2 32 0 45 -2 12 -4 2 -4 -23z"/>
<path d="M932 1483 l-2 -93 85 0 85 0 -2 88 -2 87 -3 -82 -4 -83 -74 0 -74 0
-4 88 -3 87 -2 -92z"/>
<path d="M858 1480 l3 -79 -88 -4 -88 -3 93 -2 92 -2 0 85 c0 47 -3 85 -7 85
-5 0 -7 -36 -5 -80z"/>
<path d="M63 1470 c0 -36 2 -50 4 -32 2 17 2 47 0 65 -2 17 -4 3 -4 -33z"/>
<path d="M1461 1464 c0 -11 3 -14 6 -6 3 7 2 16 -1 19 -3 4 -6 -2 -5 -13z"/>
<path d="M359 1448 c9 -13 26 -17 55 -16 l41 1 -40 4 c-22 3 -47 10 -55 16
-13 11 -13 10 -1 -5z"/>
<path d="M464 1240 c0 -113 2 -159 3 -102 2 56 2 148 0 205 -1 56 -3 10 -3
-103z"/>
<path d="M1330 1240 c0 -238 -4 -251 -78 -274 -26 -8 -39 -15 -29 -15 34 -2
86 28 101 58 13 24 16 68 16 225 l0 195 58 4 57 3 -62 2 -63 2 0 -200z"/>
<path d="M1733 1390 c0 -25 2 -35 4 -22 2 12 2 32 0 45 -2 12 -4 2 -4 -23z"/>
<path d="M71 1375 c-2 -48 63 -265 75 -253 1 2 -8 35 -23 73 -14 39 -31 102
-38 140 -7 39 -14 57 -14 40z"/>
<path d="M1716 1304 c-4 -20 -5 -38 -3 -40 3 -3 8 11 11 32 4 20 5 38 3 40 -3
3 -8 -11 -11 -32z"/>
<path d="M702 1243 l2 -88 3 82 4 82 67 4 67 3 -72 2 -73 2 2 -87z"/>
<path d="M864 1245 c0 -49 1 -71 3 -48 2 23 2 64 0 90 -2 26 -3 8 -3 -42z"/>
<path d="M932 1238 l2 -93 3 88 4 88 79 -3 c44 -2 80 0 80 5 0 4 -38 7 -85 7
l-85 0 2 -92z"/>
<path d="M1093 1240 c0 -25 2 -35 4 -22 2 12 2 32 0 45 -2 12 -4 2 -4 -23z"/>
<path d="M1688 1205 c-3 -11 -9 -29 -13 -40 -3 -11 1 -7 10 8 9 16 15 33 12
40 -2 6 -6 3 -9 -8z"/>
<path d="M1627 1065 c-20 -41 -35 -75 -32 -75 7 0 77 141 73 146 -2 2 -21 -30
-41 -71z"/>
<path d="M150 1104 c0 -6 7 -19 16 -30 14 -18 14 -18 3 6 -14 31 -19 36 -19
24z"/>
<path d="M180 1046 c0 -10 51 -96 57 -96 3 0 -7 21 -23 48 -31 54 -34 58 -34
48z"/>
<path d="M470 1024 c0 -6 7 -19 16 -30 14 -18 14 -18 3 6 -14 31 -19 36 -19
24z"/>
<path d="M517 969 c7 -7 15 -10 18 -7 3 3 -2 9 -12 12 -14 6 -15 5 -6 -5z"/>
<path d="M1463 793 c-67 -101 -117 -181 -113 -178 13 8 243 355 239 359 -2 2
-59 -80 -126 -181z"/>
<path d="M718 953 c89 -2 235 -2 325 0 89 1 16 3 -163 3 -179 0 -252 -2 -162
-3z"/>
<path d="M249 925 c5 -11 17 -29 26 -40 l16 -20 -10 20 c-5 11 -17 29 -26 40
l-16 20 10 -20z"/>
<path d="M320 806 c0 -2 8 -10 18 -17 15 -13 16 -12 3 4 -13 16 -21 21 -21 13z"/>
<path d="M391 710 c53 -82 295 -404 316 -422 9 -7 -19 33 -63 90 -43 57 -119
158 -167 225 -113 157 -138 188 -86 107z"/>
<path d="M1289 543 c-23 -32 -36 -53 -28 -46 17 14 83 103 76 103 -3 0 -24
-26 -48 -57z"/>
<path d="M1220 450 c-12 -16 -19 -30 -16 -30 2 0 14 14 26 30 12 17 19 30 16
30 -2 0 -14 -13 -26 -30z"/>
<path d="M1174 388 l-19 -23 23 19 c21 18 27 26 19 26 -2 0 -12 -10 -23 -22z"/>
<path d="M1109 308 c-24 -29 -36 -47 -26 -39 20 16 81 91 74 91 -2 0 -24 -24
-48 -52z"/>
<path d="M748 235 c6 -11 21 -29 34 -40 22 -19 22 -19 -2 10 -40 48 -43 51
-32 30z"/>
<path d="M1005 190 c-32 -34 -52 -58 -43 -55 13 5 115 115 106 115 -2 0 -30
-27 -63 -60z"/>
<path d="M828 143 c13 -13 31 -23 40 -22 11 0 9 4 -8 10 -13 6 -32 15 -40 22
-9 7 -5 2 8 -10z"/>
</g>
</svg>
